<svg width="128" height="24" viewBox="0 0 128 24" fill="none" xmlns="http://www.w3.org/2000/svg">
<path fill-rule="evenodd" clip-rule="evenodd" d="M8.7587 5H15.2413C16.0463 4.99999 16.7106 4.99998 17.2518 5.04419C17.8139 5.09012 18.3306 5.18868 18.816 5.43597C19.5686 5.81947 20.1805 6.43139 20.564 7.18404C20.8113 7.66937 20.9099 8.18608 20.9558 8.74817C21 9.28936 21 9.95372 21 10.7587V15.2413C21 16.0463 21 16.7106 20.9558 17.2518C20.9099 17.8139 20.8113 18.3306 20.564 18.816C20.1805 19.5686 19.5686 20.1805 18.816 20.564C18.3306 20.8113 17.8139 20.9099 17.2518 20.9558C16.7106 21 16.0463 21 15.2413 21H8.75873C7.95374 21 7.28938 21 6.74817 20.9558C6.18608 20.9099 5.66937 20.8113 5.18404 20.564C4.43139 20.1805 3.81947 19.5686 3.43597 18.816C3.18868 18.3306 3.09012 17.8139 3.04419 17.2518C2.99998 16.7106 2.99999 16.0463 3 15.2413V10.7587C2.99999 9.95373 2.99998 9.28937 3.04419 8.74817C3.09012 8.18608 3.18868 7.66937 3.43597 7.18404C3.81947 6.43139 4.43139 5.81947 5.18404 5.43597C5.66937 5.18868 6.18608 5.09012 6.74817 5.04419C7.28937 4.99998 7.95373 4.99999 8.7587 5ZM6.91104 7.03755C6.47262 7.07337 6.24842 7.1383 6.09202 7.21799C5.7157 7.40973 5.40973 7.71569 5.21799 8.09202C5.1383 8.24842 5.07337 8.47262 5.03755 8.91104C5.00078 9.36113 5 9.94342 5 10.8V15.2C5 16.0566 5.00078 16.6389 5.03755 17.089C5.07337 17.5274 5.1383 17.7516 5.21799 17.908C5.40973 18.2843 5.7157 18.5903 6.09202 18.782C6.24842 18.8617 6.47262 18.9266 6.91104 18.9624C7.36113 18.9992 7.94342 19 8.8 19H15.2C16.0566 19 16.6389 18.9992 17.089 18.9624C17.5274 18.9266 17.7516 18.8617 17.908 18.782C18.2843 18.5903 18.5903 18.2843 18.782 17.908C18.8617 17.7516 18.9266 17.5274 18.9624 17.089C18.9992 16.6389 19 16.0566 19 15.2V10.8C19 9.94342 18.9992 9.36113 18.9624 8.91104C18.9266 8.47262 18.8617 8.24842 18.782 8.09202C18.5903 7.71569 18.2843 7.40973 17.908 7.21799C17.7516 7.1383 17.5274 7.07337 17.089 7.03755C16.6389 7.00078 16.0566 7 15.2 7H8.8C7.94342 7 7.36113 7.00078 6.91104 7.03755Z" fill="#2661C2"/>
<path fill-rule="evenodd" clip-rule="evenodd" d="M10 2.43L10 3.00006L8 2.99994L8.00009 1.59801L8.27826 1.3079C8.52078 1.05498 8.88254 0.687155 9.51489 0.412789C10.1265 0.147442 10.9151 0 12 0C13.085 0 13.8736 0.147454 14.4852 0.412808C15.1175 0.687178 15.4793 1.055 15.7218 1.30788L16 1.59802V3H14V2.42998C13.9115 2.36092 13.8144 2.30192 13.6891 2.24754C13.4093 2.12611 12.9151 2 12 2C11.085 2 10.5908 2.12611 10.3109 2.24754C10.1856 2.30192 10.0886 2.36092 10 2.43Z" fill="#2661C2"/>
<path fill-rule="evenodd" clip-rule="evenodd" d="M12.0005 17C10.8097 17.0006 9.59337 16.695 8.4 15.8L9.6 14.2C10.4066 14.805 11.1886 15.0004 11.9995 15C12.8103 14.9996 13.594 14.8045 14.4 14.2L15.6 15.8C14.406 16.6955 13.1879 16.9994 12.0005 17Z" fill="#2661C2"/>
<path d="M7 11.5C7 10.6716 7.67157 10 8.5 10C9.32843 10 10 10.6716 10 11.5C10 12.3284 9.32843 13 8.5 13C7.67157 13 7 12.3284 7 11.5Z" fill="#2661C2"/>
<path d="M14 11.5C14 10.6716 14.6716 10 15.5 10C16.3284 10 17 10.6716 17 11.5C17 12.3284 16.3284 13 15.5 13C14.6716 13 14 12.3284 14 11.5Z" fill="#2661C2"/>
<path d="M32.3193 17L35.9902 7.13574H37.207L40.8711 17H39.5791L38.5811 14.1768H34.6094L33.6113 17H32.3193ZM36.585 8.6123L34.9854 13.1309H38.2119L36.6123 8.6123H36.585ZM42.0059 17V7.13574H43.2363V17H42.0059ZM47.2354 17L50.9062 7.13574H52.123L55.7871 17H54.4951L53.4971 14.1768H49.5254L48.5273 17H47.2354ZM51.501 8.6123L49.9014 13.1309H53.1279L51.5283 8.6123H51.501ZM56.7373 17V9.89062H57.9268V10.9023H57.9541C58.3369 10.2393 59.0615 9.75391 60.1416 9.75391C61.7002 9.75391 62.6025 10.7656 62.6025 12.3857V17H61.4131V12.5977C61.4131 11.4424 60.873 10.8066 59.7793 10.8066C58.6582 10.8066 57.9268 11.6064 57.9268 12.8164V17H56.7373ZM66.1982 17.1367C64.7832 17.1367 63.833 16.2822 63.833 14.9902V14.9766C63.833 13.7666 64.7764 13.0078 66.4102 12.9121L68.4473 12.7959V12.2012C68.4473 11.333 67.8799 10.8066 66.8887 10.8066C65.9727 10.8066 65.3984 11.2441 65.2617 11.8799L65.248 11.9414H64.0996L64.1064 11.8662C64.209 10.6973 65.2275 9.75391 66.9023 9.75391C68.584 9.75391 69.6367 10.6631 69.6367 12.085V17H68.4473V15.8447H68.4199C68.0029 16.624 67.1484 17.1367 66.1982 17.1367ZM65.0498 14.9902C65.0498 15.6738 65.6104 16.1045 66.4648 16.1045C67.5859 16.1045 68.4473 15.332 68.4473 14.2998V13.7188L66.5469 13.835C65.5967 13.8896 65.0498 14.3135 65.0498 14.9766V14.9902ZM71.209 17V7.13574H72.3984V17H71.209ZM74.6885 19.3926C74.4561 19.3926 74.2031 19.3652 74.0527 19.3379V18.3672C74.1553 18.3877 74.292 18.4082 74.4355 18.4082C75.1875 18.4082 75.6045 18.2168 75.8916 17.4102L76.0352 17.0068L73.3965 9.89062H74.668L76.6299 15.8105H76.6572L78.626 9.89062H79.877L77.1016 17.4443C76.5957 18.8047 75.9736 19.3926 74.6885 19.3926ZM83.124 17.1367C81.8184 17.1367 81.1758 16.5488 81.1758 15.1885V10.875H80.1367V9.89062H81.1758V7.96973H82.4062V9.89062H83.7598V10.875H82.4062V15.1816C82.4062 15.9404 82.7412 16.1523 83.377 16.1523C83.5205 16.1523 83.6572 16.1318 83.7598 16.125V17.0889C83.6094 17.1094 83.3564 17.1367 83.124 17.1367ZM85.708 8.6875C85.2979 8.6875 84.9629 8.35254 84.9629 7.94238C84.9629 7.52539 85.2979 7.19727 85.708 7.19727C86.125 7.19727 86.4531 7.52539 86.4531 7.94238C86.4531 8.35254 86.125 8.6875 85.708 8.6875ZM85.1133 17V9.89062H86.3027V17H85.1133ZM90.8691 17.1367C88.8525 17.1367 87.5742 15.7012 87.5742 13.4385V13.4316C87.5742 11.1895 88.8799 9.75391 90.8555 9.75391C92.626 9.75391 93.6719 10.9297 93.8223 12.1465L93.8291 12.2012H92.667L92.6533 12.1465C92.4756 11.4355 91.9014 10.8066 90.8555 10.8066C89.6182 10.8066 88.791 11.832 88.791 13.4453V13.4521C88.791 15.1064 89.6387 16.084 90.8691 16.084C91.8398 16.084 92.4619 15.5371 92.6602 14.7441L92.6738 14.6895H93.8428L93.8359 14.7373C93.6445 16.0908 92.4756 17.1367 90.8691 17.1367ZM97.459 17.1367C95.7842 17.1367 94.7725 16.2822 94.6289 15.0107L94.6221 14.9492H95.8115L95.8252 15.0176C95.9688 15.7285 96.4951 16.1455 97.4658 16.1455C98.4297 16.1455 99.0039 15.7422 99.0039 15.0996V15.0928C99.0039 14.5801 98.7373 14.293 97.9307 14.0947L96.8027 13.8213C95.4629 13.5 94.8135 12.8779 94.8135 11.8525V11.8457C94.8135 10.6221 95.8867 9.75391 97.4248 9.75391C98.9834 9.75391 99.9746 10.6631 100.063 11.8525L100.07 11.9414H98.9355L98.9287 11.8936C98.833 11.2031 98.3066 10.7451 97.4248 10.7451C96.5635 10.7451 96.0303 11.1621 96.0303 11.791V11.7979C96.0303 12.2832 96.3516 12.6182 97.1377 12.8096L98.2656 13.083C99.7012 13.4316 100.221 13.999 100.221 15.0107V15.0176C100.221 16.2617 99.0449 17.1367 97.459 17.1367ZM103.728 17L107.398 7.13574H108.615L112.279 17H110.987L109.989 14.1768H106.018L105.02 17H103.728ZM107.993 8.6123L106.394 13.1309H109.62L108.021 8.6123H107.993ZM113.229 19.3926V9.89062H114.419V11.0938H114.446C114.891 10.2666 115.684 9.75391 116.702 9.75391C118.521 9.75391 119.724 11.2031 119.724 13.4453V13.4521C119.724 15.6943 118.507 17.1367 116.723 17.1367C115.718 17.1367 114.891 16.6309 114.446 15.8105H114.419V19.3926H113.229ZM116.47 16.084C117.728 16.084 118.507 15.0723 118.507 13.4521V13.4453C118.507 11.8115 117.728 10.8066 116.47 10.8066C115.267 10.8066 114.412 11.8525 114.412 13.4453V13.4521C114.412 15.0381 115.273 16.084 116.47 16.084ZM120.927 19.3926V9.89062H122.116V11.0938H122.144C122.588 10.2666 123.381 9.75391 124.399 9.75391C126.218 9.75391 127.421 11.2031 127.421 13.4453V13.4521C127.421 15.6943 126.204 17.1367 124.42 17.1367C123.415 17.1367 122.588 16.6309 122.144 15.8105H122.116V19.3926H120.927ZM124.167 16.084C125.425 16.084 126.204 15.0723 126.204 13.4521V13.4453C126.204 11.8115 125.425 10.8066 124.167 10.8066C122.964 10.8066 122.109 11.8525 122.109 13.4453V13.4521C122.109 15.0381 122.971 16.084 124.167 16.084Z" fill="black"/>
</svg>
